<svg xmlns="http://www.w3.org/2000/svg" viewBox="0 0 100 100" width="1024" height="1024" role="img" aria-label="Portfoyo">
  <defs>
    <linearGradient id="bg" x1="0" y1="0" x2="1" y2="1">
      <stop offset="0" stop-color="#7B67EC"/>
      <stop offset="1" stop-color="#37CC8C"/>
    </linearGradient>
  </defs>
  <rect width="100" height="100" rx="24" fill="url(#bg)"/>
  <rect width="100" height="100" rx="24" fill="#000" opacity="0.12"/>
  <path transform="translate(21.609 77.500) scale(0.08182 -0.08182)" fill="#0A0E18" d="M187 181V305H334Q399 305 431.0 332.0Q463 359 463 423Q463 479 433.5 508.0Q404 537 340 537H187V660H345Q409 660 460.5 645.0Q512 630 549.0 600.5Q586 571 605.5 525.5Q625 480 625 419Q625 341 589.5 288.0Q554 235 484.5 208.0Q415 181 311 181ZM69 0V660H230V0Z"/>
</svg>
